<svg xmlns="http://www.w3.org/2000/svg" xmlns:xlink="http://www.w3.org/1999/xlink" width="500" zoomAndPan="magnify" viewBox="0 0 375 374.999991" height="500" preserveAspectRatio="xMidYMid meet" version="1.0"><defs><clipPath id="bd480b3ff3"><path d="M 37.5 37.5 L 337.5 37.5 L 337.5 337.5 L 37.5 337.5 Z M 37.5 37.5 " clip-rule="nonzero"/></clipPath></defs><g clip-path="url(#bd480b3ff3)"><path fill="#e11d48" d="M 337.523438 37.507812 L 337.523438 337.523438 L 132.273438 337.523438 L 131.949219 250.203125 C 131.929688 247.691406 134.796875 246.246094 136.804688 247.75 L 158.390625 263.925781 C 159.320312 264.621094 160.558594 264.722656 161.589844 264.199219 L 197.625 245.863281 C 199.628906 244.84375 199.867188 242.078125 198.070312 240.730469 L 132.742188 191.777344 C 131.984375 191.210938 131.535156 190.316406 131.527344 189.371094 L 131.265625 152.597656 C 131.246094 150.097656 134.09375 148.648438 136.105469 150.136719 L 235.828125 223.78125 C 236.753906 224.460938 237.984375 224.5625 239.007812 224.042969 L 275.160156 205.648438 C 277.171875 204.625 277.40625 201.839844 275.589844 200.5 L 93.152344 65.722656 C 91.144531 64.234375 88.296875 65.6875 88.3125 68.1875 L 89.871094 337.523438 L 37.511719 337.523438 L 37.511719 37.507812 L 337.523438 37.507812 " fill-opacity="1" fill-rule="nonzero"/></g></svg>